<?xml version="1.0" encoding="UTF-8" standalone="no" ?>
<!DOCTYPE svg PUBLIC "-//W3C//DTD SVG 1.1//EN" "http://www.w3.org/Graphics/SVG/1.1/DTD/svg11.dtd">
<svg xmlns="http://www.w3.org/2000/svg" xmlns:xlink="http://www.w3.org/1999/xlink" version="1.1" width="16" height="16" viewBox="0 0 500 500" xml:space="preserve">
<desc>Created with Fabric.js 4.6.0</desc>
<defs>
</defs>
<g transform="matrix(1 0 0 1 252.34 250.91)" id="SiYOl1DzftLWgeegztHf1"  >
<path style="stroke: rgb(216,50,128); stroke-width: 0; stroke-dasharray: none; stroke-linecap: butt; stroke-dashoffset: 0; stroke-linejoin: miter; stroke-miterlimit: 4; fill: rgb(51,51,51); fill-rule: nonzero; opacity: 1;" vector-effect="non-scaling-stroke"  transform=" translate(-247.66, -248.82)" d="M 203.27711 0 C 315.48608 0 406.55422 91.88858 406.55422 205.10844 C 406.55422 254.95548 388.90197 300.66776 359.56504 336.22395 L 495.31711 471.97602 L 469.64785 497.64528 L 334.08116 362.07859 C 298.72109 392.11422000000005 253.08154000000002 410.21689000000003 203.27711000000002 410.21689000000003 C 91.06814000000003 410.21689000000003 2.842170943040401e-14 318.32831000000004 2.842170943040401e-14 205.10845000000003 C 2.842170943040401e-14 91.88859000000004 91.06815000000003 0.000010000000031595846 203.27711000000002 0.000010000000031595846 z M 40.28916 205.10844 C 40.28916 296.08868 113.30776 369.92772 203.27711000000002 369.92772 C 293.24646 369.92772 366.26506000000006 296.08868 366.26506000000006 205.10844000000003 C 366.26506000000006 114.12820000000004 293.24646000000007 40.28916000000004 203.27711000000005 40.28916000000004 C 113.30776000000004 40.28916000000004 40.28916000000004 114.12820000000004 40.28916000000004 205.10844000000003 z" stroke-linecap="round" />
</g>
</svg>